<?xml version="1.0" standalone="no"?>
<!DOCTYPE svg PUBLIC "-//W3C//DTD SVG 20010904//EN"
 "http://www.w3.org/TR/2001/REC-SVG-20010904/DTD/svg10.dtd">
<svg version="1.0" xmlns="http://www.w3.org/2000/svg"
 width="677.000000pt" height="369.000000pt" viewBox="0 0 677.000000 369.000000"
 preserveAspectRatio="xMidYMid meet">

<g transform="translate(0.000000,369.000000) scale(0.100000,-0.100000)"
fill="#000000" stroke="none">
<path d="M2980 2860 c0 -5 6 -10 14 -10 8 0 24 -12 35 -26 21 -26 21 -36 21
-490 l0 -462 -26 -31 -26 -31 315 0 315 0 47 96 c25 53 44 98 41 101 -3 3 -26
-13 -52 -36 -26 -22 -62 -44 -83 -48 -20 -5 -117 -8 -216 -8 l-180 0 -3 478
-2 477 -100 0 c-60 0 -100 -4 -100 -10z"/>
<path d="M3258 2858 l-38 -10 0 -65 c0 -53 3 -64 14 -60 43 17 148 28 201 22
72 -8 192 -53 241 -90 19 -15 37 -25 38 -24 2 2 16 28 31 58 26 53 27 55 9 69
-33 25 -160 81 -220 97 -65 17 -218 18 -276 3z"/>
<path d="M3775 2663 c-27 -49 -94 -171 -149 -273 -56 -102 -109 -196 -118
-208 l-16 -24 -28 49 c-87 153 -117 208 -169 303 -31 58 -61 109 -66 115 -5 5
-9 -39 -9 -109 0 -112 2 -121 29 -170 16 -28 43 -78 61 -111 18 -33 43 -78 56
-100 12 -22 38 -69 58 -105 29 -55 39 -65 64 -68 35 -4 36 -2 105 123 30 55
64 118 77 140 12 22 79 141 147 265 69 124 129 229 134 235 19 20 7 25 -59 25
l-68 0 -49 -87z"/>
<path d="M2935 2669 c-84 -89 -120 -152 -151 -268 -48 -172 -23 -350 71 -504
63 -104 63 -104 113 -55 23 22 42 44 42 49 0 5 -15 30 -34 56 -116 162 -117
413 -2 573 36 50 37 52 34 137 l-3 86 -70 -74z"/>
<path d="M3877 2510 c-35 -58 -36 -61 -22 -99 7 -21 19 -73 25 -115 10 -65 9
-90 -5 -159 -62 -307 -363 -485 -653 -388 -47 16 -86 21 -164 21 l-103 -1 32
-27 c140 -120 368 -173 548 -127 277 70 475 328 475 617 0 50 -7 117 -16 151
-15 59 -68 187 -77 187 -3 0 -21 -27 -40 -60z"/>
<path d="M2750 1449 c-87 -35 -134 -113 -134 -224 1 -99 38 -166 114 -205 128
-64 287 -4 325 123 22 73 19 134 -9 192 -27 58 -57 88 -108 110 -42 17 -149
19 -188 4z m157 -44 c35 -24 56 -74 61 -150 5 -90 -11 -150 -53 -192 -27 -27
-41 -33 -75 -33 -86 0 -136 90 -128 226 9 141 100 211 195 149z"/>
<path d="M3090 1440 c0 -5 6 -10 14 -10 8 0 22 -10 30 -22 13 -18 16 -56 16
-210 l0 -188 40 0 40 0 0 208 c0 148 -3 211 -12 220 -14 14 -128 16 -128 2z"/>
<path d="M3338 1425 c-23 -51 47 -87 78 -40 12 18 11 24 -2 43 -21 31 -61 29
-76 -3z"/>
<path d="M3470 1316 c0 -9 6 -16 14 -16 19 0 34 -25 101 -173 48 -105 62 -127
78 -125 14 2 37 43 88 153 37 83 68 153 69 158 0 4 -9 7 -19 7 -14 0 -29 -21
-56 -77 -21 -43 -42 -89 -47 -103 -9 -23 -13 -18 -54 67 -24 51 -53 97 -64
103 -10 6 -40 13 -65 16 -38 6 -45 4 -45 -10z"/>
<path d="M3950 1322 c-29 -13 -57 -37 -75 -66 -26 -40 -25 -148 2 -184 43 -58
105 -81 177 -68 51 10 125 76 84 76 -6 0 -21 -9 -33 -20 -34 -32 -85 -36 -117
-10 -25 19 -53 84 -44 99 2 3 52 6 110 6 l106 0 0 35 c0 50 -29 100 -70 122
-34 18 -110 23 -140 10z m87 -37 c24 -17 42 -83 25 -94 -5 -3 -33 -4 -61 -3
-48 4 -51 5 -51 32 0 29 34 80 54 80 6 0 21 -7 33 -15z"/>
<path d="M3290 1310 c0 -5 7 -10 15 -10 27 0 35 -38 35 -164 l0 -126 45 0 45
0 0 139 c0 165 -3 171 -86 171 -30 0 -54 -4 -54 -10z"/>
<path d="M2972 903 c-7 -2 -17 -13 -22 -24 -16 -29 4 -59 40 -59 24 0 30 4 30
22 0 20 -1 20 -13 5 -11 -15 -15 -16 -31 -4 -26 19 -14 47 19 47 15 0 24 4 20
10 -7 11 -22 12 -43 3z"/>
<path d="M3080 868 c-10 -24 -16 -45 -13 -48 3 -3 8 1 10 8 3 6 15 12 28 12
13 0 25 -6 28 -12 2 -7 7 -10 11 -6 7 6 -30 88 -40 88 -3 0 -13 -19 -24 -42z
m30 -4 c0 -8 -5 -12 -10 -9 -6 4 -8 11 -5 16 9 14 15 11 15 -7z"/>
<path d="M3360 890 c-11 -11 -20 -24 -20 -29 0 -16 31 -41 50 -41 22 0 50 25
50 45 0 14 -37 45 -52 45 -5 0 -17 -9 -28 -20z m54 -16 c8 -21 -1 -34 -24 -34
-22 0 -34 15 -26 35 7 20 42 19 50 -1z"/>
<path d="M3487 903 c-4 -3 -7 -25 -7 -47 1 -36 2 -39 14 -23 7 9 18 17 25 17
6 0 11 5 11 10 0 6 -7 10 -15 10 -8 0 -15 5 -15 10 0 6 9 10 21 10 11 0 17 5
14 10 -7 11 -38 13 -48 3z"/>
<path d="M3591 902 c-14 -5 -15 -82 -1 -82 6 0 10 7 10 15 0 8 9 15 20 15 11
0 20 5 20 10 0 6 -9 10 -20 10 -11 0 -20 5 -20 10 0 6 9 10 20 10 11 0 20 4
20 8 0 8 -30 10 -49 4z"/>
<path d="M3768 899 c-11 -6 -18 -22 -18 -39 0 -23 5 -31 24 -36 14 -3 31 -2
38 2 9 6 4 10 -17 14 -21 4 -30 11 -30 25 0 14 9 21 30 25 25 5 27 7 12 13
-22 8 -18 9 -39 -4z"/>
<path d="M3867 903 c-4 -3 -7 -24 -7 -45 0 -37 1 -38 38 -38 l37 1 -30 13 -30
14 24 9 25 10 -25 8 -24 8 28 4 c15 2 25 9 22 14 -7 10 -48 12 -58 2z"/>
<path d="M3983 903 c-21 -8 -15 -33 12 -45 28 -13 23 -32 -6 -23 -11 4 -19 2
-19 -4 0 -16 45 -14 59 2 12 15 -3 37 -26 37 -7 0 -13 5 -13 10 0 6 9 10 21
10 11 0 17 5 14 10 -7 11 -22 12 -42 3z"/>
<path d="M2740 860 c0 -38 2 -40 30 -40 17 0 30 5 30 10 0 6 -9 10 -20 10 -16
0 -20 7 -20 30 0 17 -4 30 -10 30 -5 0 -10 -18 -10 -40z"/>
<path d="M2840 860 c0 -40 0 -40 38 -39 36 1 37 1 10 11 -34 12 -36 25 -5 31
l22 4 -22 2 c-13 0 -23 5 -23 10 0 5 10 12 23 14 16 3 13 5 -10 6 -32 1 -33 0
-33 -39z"/>
<path d="M3190 860 c0 -38 2 -40 30 -40 17 0 30 5 30 10 0 6 -9 10 -20 10 -16
0 -20 7 -20 30 0 17 -4 30 -10 30 -5 0 -10 -18 -10 -40z"/>
<path d="M3680 866 c0 -19 5 -38 10 -41 6 -4 10 10 10 34 0 23 -4 41 -10 41
-5 0 -10 -15 -10 -34z"/>
</g>
</svg>
